# xmcd CD database file
#
# Track frame offsets:
#	150
#	19593
#	37671
#	62992
#	86488
#	107021
#	133186
#	176514
#	199908
#	229026
#
# Disc length: 3399 seconds
#
# Revision: 0
# Processed by: cddbd v1.4PL0 Copyright (c) Steve Scherf et al.
# Submitted via: CDex 1.50
#
DISCID=7c0d450a
DTITLE=Ebo Live! - Rhythm Of Love
DYEAR=1995
DGENRE=Rhythmic Soul
TTITLE0=My Love Is There
TTITLE1=Rhythm Of Love
TTITLE2=I Am Music
TTITLE3=Mantra Of Light
TTITLE4=Silence Of Tomorrow
TTITLE5=Rhythm Of Love (Dance Mix)
TTITLE6=No Trance, Just Dance
TTITLE7=Dance My Troubles Aways
TTITLE8=The World Is My Drum
TTITLE9=New Times In South Africa
EXTD=YEAR: 1995
EXTT0=
EXTT1=
EXTT2=
EXTT3=
EXTT4=
EXTT5=
EXTT6=
EXTT7=
EXTT8=
EXTT9=
PLAYORDER=
